<svg xmlns="http://www.w3.org/2000/svg" xmlns:xlink="http://www.w3.org/1999/xlink" width="1040" height="450.78"><rect width="1040" height="450.78" rx="5" ry="5" class="a"/><svg y="0%" x="0%"><circle cx="20" cy="20" r="6" fill="#ff5f58"/><circle cx="40" cy="20" r="6" fill="#ffbd2e"/><circle cx="60" cy="20" r="6" fill="#18c132"/></svg><svg height="390.78" viewBox="0 0 100 39.078" width="1000" x="15" xmlns="http://www.w3.org/2000/svg" xmlns:xlink="http://www.w3.org/1999/xlink" y="50"><style>@keyframes n{0%{transform:translateX(0)}13.4%{transform:translateX(-100px)}21.1%{transform:translateX(-300px)}22.7%{transform:translateX(-400px)}24.4%{transform:translateX(-500px)}26%{transform:translateX(-600px)}27.7%{transform:translateX(-700px)}29.3%{transform:translateX(-800px)}31%{transform:translateX(-900px)}31.4%{transform:translateX(-1100px)}32.2%{transform:translateX(-1300px)}32.7%{transform:translateX(-1500px)}33.3%{transform:translateX(-1700px)}to{transform:translateX(-1800px)}}.a{fill:#000}.f,.g{font-weight:700}.f{fill:#c7c530;white-space:pre}.g{fill:#78c9e4}.g,.h,.i,.j,.k{white-space:pre}.h{fill:#feffff;font-weight:700}.i,.j,.k{fill:#cfcfcf}.j,.k{fill:#feffff}.k{fill:#f7a89f;font-weight:700}</style><g font-family="Monaco,Consolas,Menlo,'Bitstream Vera Sans Mono','Powerline Symbols',monospace" font-size="1.67"><defs><symbol id="1"><text y="1.67" class="f">➜</text><text x="2.004" y="1.67" class="g">projects</text><text x="11.022" y="1.67" class="h">$</text><text x="13.026" y="1.67" class="i">xcnotary</text><text x="22.044" y="1.67" class="i">-d</text><text x="25.05" y="1.67" class="i">developer@apple.com</text><text x="45.09" y="1.67" class="i">-k</text><text x="48.096" y="1.67" class="i">KeychainPasswordItem</text><text x="69.138" y="1.67" class="i">-b</text><text x="72.144" y="1.67" class="i">HelloWorld.app</text></symbol><symbol id="2"><text y="1.67" class="h">Processing</text><text x="11.022" y="1.67" class="i">HelloWorld</text><text x="22.044" y="1.67" class="i">1.0.14</text><text x="29.058" y="1.67" class="i">(14)</text></symbol><symbol id="3"><text y="1.67" class="i">⠁</text></symbol><symbol id="4"><text y="1.67" class="j">✔</text><text x="2.004" y="1.67" class="i">Perform</text><text x="10.02" y="1.67" class="i">check:</text><text x="17.034" y="1.67" class="i">Developer</text><text x="27.054" y="1.67" class="i">ID</text><text x="30.06" y="1.67" class="i">signing</text></symbol><symbol id="5"><text y="1.67" class="j">✔</text><text x="2.004" y="1.67" class="i">Perform</text><text x="10.02" y="1.67" class="i">check:</text><text x="17.034" y="1.67" class="i">Hardened</text><text x="26.052" y="1.67" class="i">runtime</text></symbol><symbol id="6"><text y="1.67" class="j">✔</text><text x="2.004" y="1.67" class="i">Perform</text><text x="10.02" y="1.67" class="i">check:</text><text x="17.034" y="1.67" class="i">No</text><text x="20.04" y="1.67" class="i">get-task-allow</text><text x="35.07" y="1.67" class="i">entitlement</text></symbol><symbol id="7"><text y="1.67" class="k">Pre-notarization</text><text x="17.034" y="1.67" class="k">check</text><text x="23.046" y="1.67" class="k">failed:</text></symbol><symbol id="8"><text y="1.67" class="i">The</text><text x="4.008" y="1.67" class="i">bundle</text><text x="11.022" y="1.67" class="i">is</text><text x="14.028" y="1.67" class="i">missing</text><text x="22.044" y="1.67" class="i">a</text><text x="24.048" y="1.67" class="i">secure</text><text x="31.062" y="1.67" class="i">timestamp.</text></symbol><symbol id="9"><text y="1.67" class="h">Suggested</text><text x="10.02" y="1.67" class="h">fix:</text></symbol><symbol id="10"><text x="3.006" y="1.67" class="i">codesign</text><text x="12.024" y="1.67" class="i">using</text><text x="18.036" y="1.67" class="i">--timestamp</text><text x="30.06" y="1.67" class="i">flag,</text><text x="36.072" y="1.67" class="i">or</text><text x="39.078" y="1.67" class="i">pass</text><text x="44.088" y="1.67" class="i">OTHER_CODE_SIGN_FLAGS=--timestamp</text><text x="78.156" y="1.67" class="i">to</text><text x="81.162" y="1.67" class="i">xcodebuild.</text></symbol><symbol id="11"><text y="1.67" class="h">See</text><text x="4.008" y="1.67" class="h">also:</text></symbol><symbol id="12"><text x="3.006" y="1.67" class="i">https://developer.apple.com/documentation/xcode/notarizing_macos_software_before_distribution/res</text></symbol><symbol id="13"><text y="1.67" class="i">olving_common_notarization_issues</text></symbol><symbol id="a"><path fill="transparent" d="M0 0h100v19H0z"/></symbol><symbol id="b"><path fill="#ffb473" d="M0 0h1.102v2.171H0z"/></symbol></defs><path class="a" d="M0 0h100v39.078H0z"/><g style="animation-duration:7.498501000000001s;animation-iteration-count:infinite;animation-name:n;animation-timing-function:steps(1,end)"><svg width="1900"><svg><use xlink:href="#a"/><use xlink:href="#b" x="12.996"/><text y="1.67" class="f">➜</text><text x="2.004" y="1.67" class="g">projects</text><text x="11.022" y="1.67" class="h">$</text></svg><svg x="100"><use xlink:href="#a"/><use xlink:href="#b" x="-.004" y="2.146"/><use xlink:href="#1"/></svg><svg x="200"><use xlink:href="#a"/><use xlink:href="#b" x="-.004" y="6.488"/><use xlink:href="#1"/><use xlink:href="#2" y="2.171"/></svg><svg x="300"><use xlink:href="#a"/><use xlink:href="#b" x="-.004" y="8.659"/><use xlink:href="#1"/><use xlink:href="#2" y="2.171"/><use xlink:href="#3" y="6.513"/></svg><svg x="400"><use xlink:href="#a"/><use xlink:href="#b" x="-.004" y="8.659"/><use xlink:href="#1"/><use xlink:href="#2" y="2.171"/><text y="8.183" class="j">⠈</text><text x="2.004" y="8.183" class="i">Perform</text><text x="10.02" y="8.183" class="i">check:</text><text x="17.034" y="8.183" class="i">Developer</text><text x="27.054" y="8.183" class="i">ID</text><text x="30.06" y="8.183" class="i">signing</text></svg><svg x="500"><use xlink:href="#a"/><use xlink:href="#b" x="-.004" y="8.659"/><use xlink:href="#1"/><use xlink:href="#2" y="2.171"/><text y="8.183" class="j">⠍</text><text x="2.004" y="8.183" class="i">Perform</text><text x="10.02" y="8.183" class="i">check:</text><text x="17.034" y="8.183" class="i">Developer</text><text x="27.054" y="8.183" class="i">ID</text><text x="30.06" y="8.183" class="i">signing</text></svg><svg x="600"><use xlink:href="#a"/><use xlink:href="#b" x="-.004" y="8.659"/><use xlink:href="#1"/><use xlink:href="#2" y="2.171"/><text y="8.183" class="j">⠉</text><text x="2.004" y="8.183" class="i">Perform</text><text x="10.02" y="8.183" class="i">check:</text><text x="17.034" y="8.183" class="i">Developer</text><text x="27.054" y="8.183" class="i">ID</text><text x="30.06" y="8.183" class="i">signing</text></svg><svg x="700"><use xlink:href="#a"/><use xlink:href="#b" x="-.004" y="8.659"/><use xlink:href="#1"/><use xlink:href="#2" y="2.171"/><text y="8.183" class="j">⡗</text><text x="2.004" y="8.183" class="i">Perform</text><text x="10.02" y="8.183" class="i">check:</text><text x="17.034" y="8.183" class="i">Developer</text><text x="27.054" y="8.183" class="i">ID</text><text x="30.06" y="8.183" class="i">signing</text></svg><svg x="800"><use xlink:href="#a"/><use xlink:href="#b" x="-.004" y="8.659"/><use xlink:href="#1"/><use xlink:href="#2" y="2.171"/><text y="8.183" class="j">⡙</text><text x="2.004" y="8.183" class="i">Perform</text><text x="10.02" y="8.183" class="i">check:</text><text x="17.034" y="8.183" class="i">Developer</text><text x="27.054" y="8.183" class="i">ID</text><text x="30.06" y="8.183" class="i">signing</text></svg><svg x="900"><use xlink:href="#a"/><use xlink:href="#b" x="-.004" y="8.659"/><use xlink:href="#1"/><use xlink:href="#2" y="2.171"/><text y="8.183" class="j">⠙</text><text x="2.004" y="8.183" class="i">Perform</text><text x="10.02" y="8.183" class="i">check:</text><text x="17.034" y="8.183" class="i">Developer</text><text x="27.054" y="8.183" class="i">ID</text><text x="30.06" y="8.183" class="i">signing</text></svg><svg x="1000"><use xlink:href="#a"/><use xlink:href="#b" x="-.004" y="8.659"/><use xlink:href="#1"/><use xlink:href="#2" y="2.171"/><use xlink:href="#4" y="6.513"/></svg><svg x="1100"><use xlink:href="#a"/><use xlink:href="#b" x="-.004" y="10.83"/><use xlink:href="#1"/><use xlink:href="#2" y="2.171"/><use xlink:href="#4" y="6.513"/><use xlink:href="#3" y="8.684"/></svg><svg x="1200"><use xlink:href="#a"/><use xlink:href="#b" x="-.004" y="10.83"/><use xlink:href="#1"/><use xlink:href="#2" y="2.171"/><use xlink:href="#4" y="6.513"/><use xlink:href="#5" y="8.684"/></svg><svg x="1300"><use xlink:href="#a"/><use xlink:href="#b" x="-.004" y="13.001"/><use xlink:href="#1"/><use xlink:href="#2" y="2.171"/><use xlink:href="#4" y="6.513"/><use xlink:href="#5" y="8.684"/><use xlink:href="#3" y="10.855"/></svg><svg x="1400"><use xlink:href="#a"/><use xlink:href="#b" x="-.004" y="13.001"/><use xlink:href="#1"/><use xlink:href="#2" y="2.171"/><use xlink:href="#4" y="6.513"/><use xlink:href="#5" y="8.684"/><use xlink:href="#6" y="10.855"/></svg><svg x="1500"><use xlink:href="#a"/><use xlink:href="#b" x="-.004" y="15.172"/><use xlink:href="#1"/><use xlink:href="#2" y="2.171"/><use xlink:href="#4" y="6.513"/><use xlink:href="#5" y="8.684"/><use xlink:href="#6" y="10.855"/><use xlink:href="#3" y="13.026"/></svg><svg x="1600"><use xlink:href="#a"/><use xlink:href="#b" x="-.004" y="13.001"/><use xlink:href="#1"/><use xlink:href="#2" y="2.171"/><use xlink:href="#4" y="6.513"/><use xlink:href="#5" y="8.684"/><use xlink:href="#6" y="10.855"/></svg><svg x="1700"><use xlink:href="#a"/><use xlink:href="#b" x="32.996" y="32.54"/><use xlink:href="#1"/><use xlink:href="#2" y="2.171"/><use xlink:href="#4" y="6.513"/><use xlink:href="#5" y="8.684"/><use xlink:href="#6" y="10.855"/><use xlink:href="#7" y="15.197"/><use xlink:href="#8" y="17.368"/><use xlink:href="#9" y="21.71"/><use xlink:href="#10" y="23.881"/><use xlink:href="#11" y="28.223"/><use xlink:href="#12" y="30.394"/><use xlink:href="#13" y="32.565"/></svg><svg x="1800"><use xlink:href="#a"/><use xlink:href="#b" x="-.004" y="34.711"/><use xlink:href="#1"/><use xlink:href="#2" y="2.171"/><use xlink:href="#4" y="6.513"/><use xlink:href="#5" y="8.684"/><use xlink:href="#6" y="10.855"/><use xlink:href="#7" y="15.197"/><use xlink:href="#8" y="17.368"/><use xlink:href="#9" y="21.71"/><use xlink:href="#10" y="23.881"/><use xlink:href="#11" y="28.223"/><use xlink:href="#12" y="30.394"/><use xlink:href="#13" y="32.565"/></svg></svg></g></g></svg></svg>